<svg width="62" height="12" viewBox="0 0 62 12" fill="none" xmlns="http://www.w3.org/2000/svg">
<path d="M0.468 6.165V5.515L6.539 1.745L7.28 2.915L2.548 5.775L7.28 8.57L6.539 9.74L0.468 6.165ZM14.6719 0.744L15.9459 1.316L11.3049 11.82L10.0309 11.222L14.6719 0.744ZM32.7838 5.151L32.8488 3.734H32.7708L31.3148 6.113H31.0028L29.4818 3.734H29.4168L29.4948 5.008V10H27.8048V0.899999H29.6118L31.1718 3.422H31.2238L32.7708 0.899999H34.5648V10H32.7838V5.151ZM41.7487 6.191H38.8107V10H37.0297V0.899999H38.8107V4.605H41.7487V0.899999H43.5297V10H41.7487V6.191ZM55.7785 9.74L55.0375 8.57L59.7695 5.775L55.0375 2.915L55.7785 1.745L61.8495 5.515V6.165L55.7785 9.74Z" fill="white"/>
</svg>
