<svg width="53" height="10" viewBox="0 0 53 10" fill="none" xmlns="http://www.w3.org/2000/svg">
<path d="M0.468 6.165V5.515L6.539 1.745L7.28 2.915L2.548 5.775L7.28 8.57L6.539 9.74L0.468 6.165ZM23.6888 5.151L23.7538 3.734H23.6758L22.2198 6.113H21.9078L20.3868 3.734H20.3218L20.3998 5.008V10H18.7098V0.899999H20.5168L22.0768 3.422H22.1288L23.6758 0.899999H25.4698V10H23.6888V5.151ZM32.6538 6.191H29.7158V10H27.9348V0.899999H29.7158V4.605H32.6538V0.899999H34.4348V10H32.6538V6.191ZM46.6836 9.74L45.9426 8.57L50.6746 5.775L45.9426 2.915L46.6836 1.745L52.7546 5.515V6.165L46.6836 9.74Z" fill="#1D1335"/>
</svg>
